M48
METRIC,TZ
G90
M71
T1C1
T2C3
T3C0.7
T4C1.2
T5C1.1
M95
T1
X17.305815Y-6.391428
X25.925815Y-6.391428
X13.122313Y-5.704428
X13.122313Y-10.784428
X12.868313Y-8.244428
X13.122313Y-15.864428
X12.868313Y-13.324428
X12.868313Y-18.404428
X77.099037Y-9.614428
X77.099037Y-14.494428
X25.260560Y-10.054428
X25.260560Y-14.054428
X71.837180Y-9.908270
X71.837180Y-5.908270
X71.837719Y-14.764793
X71.837719Y-18.764793
X17.305815Y-17.717428
X25.925815Y-17.717428
X65.168831Y-17.054428
X69.168831Y-17.054428
X65.118607Y-7.054428
X69.118607Y-7.054428
X65.160815Y-12.054428
X69.160815Y-12.054428
X82.465271Y-10.238132
X82.465271Y-14.238132
T2
X76.440815Y-21.054428
X21.240815Y-21.054428
X76.440815Y-3.054428
X21.240815Y-3.054428
T3
X34.085162Y-8.244428
X54.405162Y-8.244428
X56.945162Y-15.864428
X59.485162Y-15.864428
X34.085162Y-15.864428
X51.865162Y-8.244428
X44.245162Y-8.244428
X46.785162Y-8.244428
X36.625162Y-8.244428
X39.165162Y-15.864428
X41.705162Y-8.244428
X54.405162Y-15.864428
X29.005162Y-8.244428
X59.485162Y-8.244428
X56.945162Y-8.244428
X44.245162Y-15.864428
X31.545162Y-15.864428
X46.785162Y-15.864428
X29.005162Y-15.864428
X39.165162Y-8.244428
X49.325162Y-8.244428
X36.625162Y-15.864428
X62.025162Y-8.244428
X41.705162Y-15.864428
X62.025162Y-15.864428
X51.865162Y-15.864428
X31.545162Y-8.244428
X49.325162Y-15.864428
T4
X21.453387Y-12.054428
X16.453387Y-12.054428
T5
X51.865162Y-20.944428
X49.325162Y-20.944428
X56.945162Y-20.944428
X54.405162Y-20.944428
X62.025162Y-20.944428
X59.455162Y-20.944428
X64.565162Y-20.944428
X26.465162Y-20.944428
X31.545162Y-20.944428
X29.005162Y-20.944428
X36.625162Y-20.944428
X34.085162Y-20.944428
X41.705162Y-20.944428
X39.165162Y-20.944428
X46.785162Y-20.944428
X44.245162Y-20.944428
X51.865162Y-3.164428
X49.325162Y-3.164428
X56.945162Y-3.164428
X54.405162Y-3.164428
X62.025162Y-3.164428
X59.455162Y-3.164428
X64.565162Y-3.164428
X26.465162Y-3.164428
X31.545162Y-3.164428
X29.005162Y-3.164428
X36.625162Y-3.164428
X34.085162Y-3.164428
X41.705162Y-3.164428
X39.165162Y-3.164428
X46.785162Y-3.164428
X44.245162Y-3.164428
M30
