G04                                                      *
G04 Greetings!                                           *
G04 This Gerber was generated by PCBmodE, an open source *
G04 PCB design software. Get it here:                    *
G04                                                      *
G04   http://pcbmode.com                                 *
G04                                                      *
G04 Also visit                                           *
G04                                                      *
G04   http://boldport.com                                *
G04                                                      *
G04 and follow @boldport / @pcbmode for updates!         *
G04                                                      *

G04 leading zeros omitted (L); absolute data (A); 6 integer digits and 6 fractional digits *
%FSLAX66Y66*%

G04 mode (MO): millimeters (MM) *
%MOMM*%

G04 Aperture definitions *
%ADD10C,0.001X*%
%ADD11C,0.001X*%
%ADD20C,0.05X*%

%LPD*%
D20*
G01X70559507Y-2303458D02*
G01X70559507Y-2303458D01*
G01X70644392Y-2254526D01*
G01X70730310Y-2206029D01*
G01X70817222Y-2157971D01*
G01X70905093Y-2110353D01*
G01X70993885Y-2063180D01*
G01X71083562Y-2016454D01*
G01X71174087Y-1970178D01*
G01X71265423Y-1924356D01*
G01X71357533Y-1878990D01*
G01X71450381Y-1834084D01*
G01X71543929Y-1789641D01*
G01X71638141Y-1745663D01*
G01X71732979Y-1702154D01*
G01X71828408Y-1659118D01*
G01X71924390Y-1616556D01*
G01X72020888Y-1574472D01*
G01X72117866Y-1532870D01*
G01X72215286Y-1491751D01*
G01X72313112Y-1451120D01*
G01X72411308Y-1410980D01*
G01X72509835Y-1371333D01*
G01X72608658Y-1332182D01*
G01X72707739Y-1293531D01*
G01X72807042Y-1255383D01*
G01X72906529Y-1217741D01*
G01X73006165Y-1180608D01*
G01X73105912Y-1143986D01*
G01X73205733Y-1107879D01*
G01X73305591Y-1072291D01*
G01X73405450Y-1037224D01*
G01X73505273Y-1002681D01*
G01X73605023Y-0968665D01*
G01X73704663Y-0935180D01*
G01X73804157Y-0902229D01*
G01X73903466Y-0869814D01*
G01X74002556Y-0837938D01*
G01X74101388Y-0806605D01*
G01X74199926Y-0775819D01*
G01X74298133Y-0745581D01*
G01X74395972Y-0715895D01*
G01X74493407Y-0686764D01*
G01X74590400Y-0658191D01*
G01X74686915Y-0630179D01*
G01X74782915Y-0602732D01*
G01X74878363Y-0575852D01*
G01X74973223Y-0549543D01*
G01X75067456Y-0523807D01*
G01X75161028Y-0498647D01*
G01X75253900Y-0474068D01*
G01X75346035Y-0450071D01*
G01X75437398Y-0426660D01*
G01X75527951Y-0403838D01*
G01X75617658Y-0381607D01*
G01X75706481Y-0359972D01*
G01X75794383Y-0338935D01*
G01X75881329Y-0318500D01*
G01X75967281Y-0298668D01*
G01X76052201Y-0279444D01*
G01X76136054Y-0260831D01*
G01X76218803Y-0242831D01*
G01X76300410Y-0225447D01*
G01X76380839Y-0208684D01*
G01X76460054Y-0192543D01*
G01X76538016Y-0177028D01*
G01X76614689Y-0162142D01*
G01X76690038Y-0147888D01*
G01X76764023Y-0134269D01*
G01X76836610Y-0121288D01*
G01X76907760Y-0108948D01*
G01X76977438Y-0097253D01*
G01X77045606Y-0086205D01*
G01X77112227Y-0075808D01*
G01X77177265Y-0066064D01*
G01X77240683Y-0056977D01*
G01X77302444Y-0048550D01*
G01X77362511Y-0040785D01*
G01X77420847Y-0033686D01*
G01X77477416Y-0027257D01*
G01X77532180Y-0021499D01*
G01X77585103Y-0016416D01*
G01X77636148Y-0012012D01*
G01X77685278Y-0008289D01*
G01X77732456Y-0005250D01*
G01X77777646Y-0002899D01*
G01X77820810Y-0001238D01*
G01X77861912Y-0000271D01*
G01X77900915Y-0000000D01*
G01X77937782Y-0000429D01*
G01X77972476Y-0001561D01*
G01X78004961Y-0003399D01*
G01X78035199Y-0005946D01*
G01X78063154Y-0009205D01*
G01X78088789Y-0013179D01*
G01X78112066Y-0017871D01*
G01X78132950Y-0023285D01*
G01X78151404Y-0029423D01*
G01X78167390Y-0036288D01*
G01X78180871Y-0043884D01*
G01X78191812Y-0052214D01*
G01X78200174Y-0061280D01*
G01X78200174Y-0061280D01*
G01X78200174Y-0061280D01*
G01X78243993Y-0119986D01*
G01X78287785Y-0178964D01*
G01X78331546Y-0238210D01*
G01X78375273Y-0297723D01*
G01X78418962Y-0357500D01*
G01X78462609Y-0417538D01*
G01X78506210Y-0477836D01*
G01X78549763Y-0538391D01*
G01X78593263Y-0599200D01*
G01X78636706Y-0660262D01*
G01X78680089Y-0721573D01*
G01X78723408Y-0783131D01*
G01X78766659Y-0844934D01*
G01X78809839Y-0906980D01*
G01X78852945Y-0969266D01*
G01X78895972Y-1031790D01*
G01X78938916Y-1094548D01*
G01X78981774Y-1157540D01*
G01X79024543Y-1220762D01*
G01X79067218Y-1284212D01*
G01X79109797Y-1347888D01*
G01X79152274Y-1411788D01*
G01X79194648Y-1475908D01*
G01X79236913Y-1540246D01*
G01X79279066Y-1604801D01*
G01X79321104Y-1669569D01*
G01X79363022Y-1734549D01*
G01X79404818Y-1799737D01*
G01X79446487Y-1865132D01*
G01X79488026Y-1930731D01*
G01X79529431Y-1996532D01*
G01X79570699Y-2062532D01*
G01X79611825Y-2128729D01*
G01X79652806Y-2195120D01*
G01X79693639Y-2261703D01*
G01X79734319Y-2328476D01*
G01X79774843Y-2395437D01*
G01X79815207Y-2462582D01*
G01X79855409Y-2529909D01*
G01X79895442Y-2597417D01*
G01X79935306Y-2665102D01*
G01X79974994Y-2732963D01*
G01X80014505Y-2800997D01*
G01X80053834Y-2869201D01*
G01X80092977Y-2937573D01*
G01X80131931Y-3006110D01*
G01X80170692Y-3074811D01*
G01X80209256Y-3143673D01*
G01X80247621Y-3212693D01*
G01X80285781Y-3281870D01*
G01X80323734Y-3351200D01*
G01X80361475Y-3420681D01*
G01X80399001Y-3490311D01*
G01X80436309Y-3560087D01*
G01X80473394Y-3630008D01*
G01X80510253Y-3700070D01*
G01X80546883Y-3770272D01*
G01X80583279Y-3840610D01*
G01X80619437Y-3911083D01*
G01X80655355Y-3981688D01*
G01X80691029Y-4052422D01*
G01X80726454Y-4123284D01*
G01X80761628Y-4194271D01*
G01X80796545Y-4265380D01*
G01X80831204Y-4336609D01*
G01X80865600Y-4407956D01*
G01X80899729Y-4479418D01*
G01X80933587Y-4550993D01*
G01X80967172Y-4622678D01*
G01X81000479Y-4694471D01*
G01X81033505Y-4766370D01*
G01X81066246Y-4838372D01*
G01X81098697Y-4910476D01*
G01X81130857Y-4982677D01*
G01X81162720Y-5054975D01*
G01X81194284Y-5127366D01*
G01X81225544Y-5199848D01*
G01X81256497Y-5272419D01*
G01X81287139Y-5345077D01*
G01X81317466Y-5417819D01*
G01X81347476Y-5490642D01*
G01X81377163Y-5563545D01*
G01X81406525Y-5636524D01*
G01X81435557Y-5709578D01*
G01X81464256Y-5782704D01*
G01X81492619Y-5855900D01*
G01X81520642Y-5929162D01*
G01X81548320Y-6002490D01*
G01X81575651Y-6075880D01*
G01X81602630Y-6149330D01*
G01X81629254Y-6222838D01*
G01X81655520Y-6296401D01*
G01X81681423Y-6370017D01*
G01X81706959Y-6443683D01*
G01X81732126Y-6517397D01*
G01X81756920Y-6591157D01*
G01X81781336Y-6664960D01*
G01X81805371Y-6738804D01*
G01X81829022Y-6812686D01*
G01X81852284Y-6886604D01*
G01X81852284Y-6886604D01*
G01X81852284Y-6886604D01*
G01X81861784Y-6915941D01*
G01X81873316Y-6949004D01*
G01X81886991Y-6985287D01*
G01X81902919Y-7024283D01*
G01X81921210Y-7065485D01*
G01X81941972Y-7108386D01*
G01X81965317Y-7152479D01*
G01X81991354Y-7197258D01*
G01X82020193Y-7242214D01*
G01X82051943Y-7286843D01*
G01X82086715Y-7330635D01*
G01X82124618Y-7373085D01*
G01X82165763Y-7413686D01*
G01X82210258Y-7451931D01*
G01X82258214Y-7487312D01*
G01X82309740Y-7519323D01*
G01X82346129Y-7538542D01*
G01X82346129Y-7538542D01*
G01X82415533Y-7573977D01*
G01X82485019Y-7609694D01*
G01X82554579Y-7645687D01*
G01X82624206Y-7681953D01*
G01X82693895Y-7718486D01*
G01X82763639Y-7755282D01*
G01X82833430Y-7792338D01*
G01X82903262Y-7829647D01*
G01X82973129Y-7867207D01*
G01X83043023Y-7905012D01*
G01X83112938Y-7943059D01*
G01X83182868Y-7981342D01*
G01X83252804Y-8019858D01*
G01X83322742Y-8058601D01*
G01X83392673Y-8097569D01*
G01X83462592Y-8136755D01*
G01X83532491Y-8176156D01*
G01X83602365Y-8215767D01*
G01X83672205Y-8255584D01*
G01X83742006Y-8295602D01*
G01X83811761Y-8335818D01*
G01X83881462Y-8376226D01*
G01X83951104Y-8416822D01*
G01X84020680Y-8457602D01*
G01X84090182Y-8498562D01*
G01X84159604Y-8539696D01*
G01X84228940Y-8581001D01*
G01X84298183Y-8622472D01*
G01X84367326Y-8664104D01*
G01X84436361Y-8705894D01*
G01X84505284Y-8747837D01*
G01X84574086Y-8789928D01*
G01X84642762Y-8832163D01*
G01X84711304Y-8874537D01*
G01X84779705Y-8917047D01*
G01X84847960Y-8959688D01*
G01X84916061Y-9002455D01*
G01X84984001Y-9045343D01*
G01X85051774Y-9088350D01*
G01X85119374Y-9131469D01*
G01X85186793Y-9174697D01*
G01X85254024Y-9218029D01*
G01X85321062Y-9261461D01*
G01X85387898Y-9304989D01*
G01X85454528Y-9348607D01*
G01X85520943Y-9392312D01*
G01X85587137Y-9436099D01*
G01X85653104Y-9479964D01*
G01X85718836Y-9523902D01*
G01X85784327Y-9567909D01*
G01X85849571Y-9611981D01*
G01X85914560Y-9656113D01*
G01X85979288Y-9700300D01*
G01X86043748Y-9744538D01*
G01X86107933Y-9788823D01*
G01X86171837Y-9833151D01*
G01X86235453Y-9877517D01*
G01X86298774Y-9921916D01*
G01X86361794Y-9966344D01*
G01X86424506Y-10010797D01*
G01X86486902Y-10055270D01*
G01X86548977Y-10099760D01*
G01X86610724Y-10144260D01*
G01X86672136Y-10188768D01*
G01X86733206Y-10233278D01*
G01X86793927Y-10277787D01*
G01X86854293Y-10322289D01*
G01X86914297Y-10366781D01*
G01X86973933Y-10411257D01*
G01X87033193Y-10455714D01*
G01X87092072Y-10500148D01*
G01X87150561Y-10544553D01*
G01X87208655Y-10588925D01*
G01X87266347Y-10633260D01*
G01X87323629Y-10677553D01*
G01X87380497Y-10721801D01*
G01X87436941Y-10765998D01*
G01X87492957Y-10810140D01*
G01X87548537Y-10854224D01*
G01X87603674Y-10898243D01*
G01X87658363Y-10942194D01*
G01X87712595Y-10986073D01*
G01X87766364Y-11029875D01*
G01X87819665Y-11073596D01*
G01X87872489Y-11117231D01*
G01X87924830Y-11160776D01*
G01X87976682Y-11204226D01*
G01X88028037Y-11247577D01*
G01X88078890Y-11290825D01*
G01X88129233Y-11333965D01*
G01X88179060Y-11376993D01*
G01X88228363Y-11419904D01*
G01X88277137Y-11462694D01*
G01X88325374Y-11505358D01*
G01X88373068Y-11547893D01*
G01X88420212Y-11590293D01*
G01X88466799Y-11632554D01*
G01X88512823Y-11674673D01*
G01X88558276Y-11716643D01*
G01X88603153Y-11758462D01*
G01X88603153Y-11758462D01*
G01X88603153Y-11758462D01*
G01X88636803Y-11797521D01*
G01X88660312Y-11845086D01*
G01X88674727Y-11898645D01*
G01X88681099Y-11955687D01*
G01X88680476Y-12013703D01*
G01X88673908Y-12070179D01*
G01X88662442Y-12122606D01*
G01X88647128Y-12168472D01*
G01X88629016Y-12205267D01*
G01X88609153Y-12230478D01*
G01X88609153Y-12230478D01*
G01X88609153Y-12230478D01*
G01X88534643Y-12300886D01*
G01X88460475Y-12371416D01*
G01X88386643Y-12442058D01*
G01X88313139Y-12512800D01*
G01X88239956Y-12583631D01*
G01X88167089Y-12654540D01*
G01X88094530Y-12725516D01*
G01X88022273Y-12796548D01*
G01X87950310Y-12867623D01*
G01X87878635Y-12938732D01*
G01X87807241Y-13009862D01*
G01X87736121Y-13081003D01*
G01X87665269Y-13152144D01*
G01X87594677Y-13223273D01*
G01X87524339Y-13294378D01*
G01X87454249Y-13365449D01*
G01X87384398Y-13436475D01*
G01X87314781Y-13507444D01*
G01X87245391Y-13578346D01*
G01X87176221Y-13649168D01*
G01X87107264Y-13719899D01*
G01X87038513Y-13790530D01*
G01X86969962Y-13861047D01*
G01X86901604Y-13931440D01*
G01X86833431Y-14001698D01*
G01X86765438Y-14071810D01*
G01X86697617Y-14141764D01*
G01X86629962Y-14211549D01*
G01X86562465Y-14281154D01*
G01X86495121Y-14350568D01*
G01X86427921Y-14419779D01*
G01X86360861Y-14488777D01*
G01X86293931Y-14557549D01*
G01X86227127Y-14626085D01*
G01X86160440Y-14694374D01*
G01X86093865Y-14762404D01*
G01X86027395Y-14830165D01*
G01X85961022Y-14897644D01*
G01X85894740Y-14964831D01*
G01X85828542Y-15031715D01*
G01X85762421Y-15098284D01*
G01X85696371Y-15164527D01*
G01X85630384Y-15230432D01*
G01X85564454Y-15295990D01*
G01X85498575Y-15361188D01*
G01X85432739Y-15426015D01*
G01X85366939Y-15490460D01*
G01X85301169Y-15554512D01*
G01X85235422Y-15618159D01*
G01X85169692Y-15681391D01*
G01X85103970Y-15744195D01*
G01X85038251Y-15806562D01*
G01X84972528Y-15868479D01*
G01X84906794Y-15929936D01*
G01X84841043Y-15990921D01*
G01X84775266Y-16051423D01*
G01X84709459Y-16111431D01*
G01X84643613Y-16170934D01*
G01X84577722Y-16229919D01*
G01X84511779Y-16288377D01*
G01X84445778Y-16346296D01*
G01X84379711Y-16403665D01*
G01X84313573Y-16460472D01*
G01X84247355Y-16516706D01*
G01X84181052Y-16572357D01*
G01X84114656Y-16627412D01*
G01X84048161Y-16681861D01*
G01X83981560Y-16735693D01*
G01X83914846Y-16788895D01*
G01X83848012Y-16841458D01*
G01X83781052Y-16893369D01*
G01X83713958Y-16944618D01*
G01X83646725Y-16995193D01*
G01X83579345Y-17045083D01*
G01X83511811Y-17094277D01*
G01X83444116Y-17142764D01*
G01X83376255Y-17190532D01*
G01X83308219Y-17237571D01*
G01X83240003Y-17283868D01*
G01X83171599Y-17329414D01*
G01X83103000Y-17374196D01*
G01X83034201Y-17418203D01*
G01X82965193Y-17461424D01*
G01X82895971Y-17503848D01*
G01X82826527Y-17545464D01*
G01X82756855Y-17586261D01*
G01X82686948Y-17626227D01*
G01X82616798Y-17665351D01*
G01X82546401Y-17703621D01*
G01X82475747Y-17741027D01*
G01X82404831Y-17777558D01*
G01X82333646Y-17813202D01*
G01X82262186Y-17847948D01*
G01X82190442Y-17881784D01*
G01X82118409Y-17914701D01*
G01X82046080Y-17946685D01*
G01X81973448Y-17977727D01*
G01X81900506Y-18007814D01*
G01X81827247Y-18036936D01*
G01X81753665Y-18065082D01*
G01X81753665Y-18065082D01*
G01X81753665Y-18065082D01*
G01X81708930Y-18088057D01*
G01X81663022Y-18112276D01*
G01X81616159Y-18137831D01*
G01X81568558Y-18164812D01*
G01X81520435Y-18193312D01*
G01X81472009Y-18223422D01*
G01X81423496Y-18255234D01*
G01X81375114Y-18288838D01*
G01X81327080Y-18324326D01*
G01X81279612Y-18361790D01*
G01X81232925Y-18401322D01*
G01X81187239Y-18443012D01*
G01X81142769Y-18486953D01*
G01X81099734Y-18533235D01*
G01X81058350Y-18581951D01*
G01X81018835Y-18633191D01*
G01X80981406Y-18687048D01*
G01X80946280Y-18743612D01*
G01X80913674Y-18802975D01*
G01X80883806Y-18865229D01*
G01X80856894Y-18930465D01*
G01X80833153Y-18998774D01*
G01X80812802Y-19070249D01*
G01X80796057Y-19144980D01*
G01X80783136Y-19223059D01*
G01X80783136Y-19223059D01*
G01X80783136Y-19223059D01*
G01X80779843Y-19291174D01*
G01X80775496Y-19359483D01*
G01X80770117Y-19427967D01*
G01X80763728Y-19496608D01*
G01X80756349Y-19565389D01*
G01X80748002Y-19634292D01*
G01X80738710Y-19703299D01*
G01X80728492Y-19772392D01*
G01X80717370Y-19841554D01*
G01X80705367Y-19910766D01*
G01X80692503Y-19980011D01*
G01X80678800Y-20049271D01*
G01X80664279Y-20118528D01*
G01X80648961Y-20187764D01*
G01X80632869Y-20256961D01*
G01X80616023Y-20326103D01*
G01X80598446Y-20395170D01*
G01X80580157Y-20464145D01*
G01X80561180Y-20533010D01*
G01X80541534Y-20601748D01*
G01X80521243Y-20670340D01*
G01X80500326Y-20738769D01*
G01X80478806Y-20807016D01*
G01X80456704Y-20875065D01*
G01X80434041Y-20942897D01*
G01X80410839Y-21010494D01*
G01X80387119Y-21077839D01*
G01X80362903Y-21144914D01*
G01X80338213Y-21211701D01*
G01X80313068Y-21278182D01*
G01X80287492Y-21344339D01*
G01X80261505Y-21410154D01*
G01X80235129Y-21475611D01*
G01X80208385Y-21540690D01*
G01X80181295Y-21605374D01*
G01X80153880Y-21669645D01*
G01X80126161Y-21733486D01*
G01X80098161Y-21796878D01*
G01X80069900Y-21859804D01*
G01X80041399Y-21922246D01*
G01X80012681Y-21984186D01*
G01X79983767Y-22045606D01*
G01X79954678Y-22106489D01*
G01X79925435Y-22166816D01*
G01X79896061Y-22226571D01*
G01X79866576Y-22285734D01*
G01X79837001Y-22344288D01*
G01X79807359Y-22402216D01*
G01X79777671Y-22459499D01*
G01X79747958Y-22516120D01*
G01X79718241Y-22572060D01*
G01X79688543Y-22627303D01*
G01X79658884Y-22681830D01*
G01X79629286Y-22735623D01*
G01X79599770Y-22788665D01*
G01X79570357Y-22840938D01*
G01X79541070Y-22892424D01*
G01X79511930Y-22943104D01*
G01X79482957Y-22992962D01*
G01X79454174Y-23041980D01*
G01X79425602Y-23090139D01*
G01X79397263Y-23137422D01*
G01X79369176Y-23183811D01*
G01X79341366Y-23229288D01*
G01X79313851Y-23273836D01*
G01X79286655Y-23317436D01*
G01X79259798Y-23360071D01*
G01X79233302Y-23401723D01*
G01X79207189Y-23442373D01*
G01X79181479Y-23482005D01*
G01X79156194Y-23520601D01*
G01X79131356Y-23558142D01*
G01X79106986Y-23594611D01*
G01X79083106Y-23629990D01*
G01X79059736Y-23664261D01*
G01X79036899Y-23697406D01*
G01X79014616Y-23729408D01*
G01X78992907Y-23760249D01*
G01X78971796Y-23789910D01*
G01X78951302Y-23818375D01*
G01X78931448Y-23845624D01*
G01X78912255Y-23871641D01*
G01X78893744Y-23896408D01*
G01X78875937Y-23919906D01*
G01X78858855Y-23942119D01*
G01X78842520Y-23963027D01*
G01X78826953Y-23982614D01*
G01X78812175Y-24000861D01*
G01X78798208Y-24017751D01*
G01X78785074Y-24033265D01*
G01X78772794Y-24047387D01*
G01X78761388Y-24060098D01*
G01X78750880Y-24071380D01*
G01X78741289Y-24081216D01*
G01X78732638Y-24089587D01*
G01X78724948Y-24096476D01*
G01X78718240Y-24101866D01*
G01X78712536Y-24105737D01*
G01X78707857Y-24108073D01*
G01X78704225Y-24108856D01*
G01X78704225Y-24108856D01*
G01X78704225Y-24108856D01*
G01X78632028Y-24107784D01*
G01X78558532Y-24106013D01*
G01X78483766Y-24103551D01*
G01X78407757Y-24100405D01*
G01X78330533Y-24096583D01*
G01X78252122Y-24092093D01*
G01X78172551Y-24086942D01*
G01X78091850Y-24081138D01*
G01X78010045Y-24074689D01*
G01X77927165Y-24067602D01*
G01X77843236Y-24059885D01*
G01X77758288Y-24051545D01*
G01X77672348Y-24042590D01*
G01X77585444Y-24033029D01*
G01X77497604Y-24022867D01*
G01X77408856Y-24012114D01*
G01X77319226Y-24000777D01*
G01X77228745Y-23988863D01*
G01X77137438Y-23976380D01*
G01X77045335Y-23963336D01*
G01X76952463Y-23949738D01*
G01X76858849Y-23935594D01*
G01X76764522Y-23920911D01*
G01X76669510Y-23905698D01*
G01X76573840Y-23889962D01*
G01X76477541Y-23873710D01*
G01X76380639Y-23856951D01*
G01X76283164Y-23839691D01*
G01X76185143Y-23821939D01*
G01X76086603Y-23803702D01*
G01X75987573Y-23784987D01*
G01X75888081Y-23765803D01*
G01X75788154Y-23746158D01*
G01X75687820Y-23726057D01*
G01X75587108Y-23705511D01*
G01X75486044Y-23684525D01*
G01X75384657Y-23663108D01*
G01X75282975Y-23641267D01*
G01X75181026Y-23619010D01*
G01X75078837Y-23596344D01*
G01X74976436Y-23573278D01*
G01X74873852Y-23549819D01*
G01X74771111Y-23525974D01*
G01X74668243Y-23501751D01*
G01X74565274Y-23477158D01*
G01X74462233Y-23452202D01*
G01X74359147Y-23426892D01*
G01X74256045Y-23401234D01*
G01X74152954Y-23375237D01*
G01X74049902Y-23348908D01*
G01X73946918Y-23322254D01*
G01X73844028Y-23295283D01*
G01X73741260Y-23268004D01*
G01X73638644Y-23240423D01*
G01X73536206Y-23212548D01*
G01X73433974Y-23184388D01*
G01X73331976Y-23155948D01*
G01X73230240Y-23127238D01*
G01X73128795Y-23098265D01*
G01X73027667Y-23069036D01*
G01X72926885Y-23039559D01*
G01X72826476Y-23009842D01*
G01X72726469Y-22979893D01*
G01X72626891Y-22949718D01*
G01X72527770Y-22919326D01*
G01X72429134Y-22888724D01*
G01X72331011Y-22857921D01*
G01X72233428Y-22826923D01*
G01X72136415Y-22795738D01*
G01X72039997Y-22764374D01*
G01X71944205Y-22732838D01*
G01X71849064Y-22701139D01*
G01X71754603Y-22669284D01*
G01X71660850Y-22637280D01*
G01X71567833Y-22605135D01*
G01X71475580Y-22572857D01*
G01X71384118Y-22540454D01*
G01X71293476Y-22507932D01*
G01X71203681Y-22475300D01*
G01X71114761Y-22442565D01*
G01X71026744Y-22409736D01*
G01X70939658Y-22376819D01*
G01X70853531Y-22343822D01*
G01X70768390Y-22310753D01*
G01X70684264Y-22277620D01*
G01X70601180Y-22244430D01*
G01X70519166Y-22211191D01*
G01X70438250Y-22177910D01*
G01X70358461Y-22144596D01*
G01X70279825Y-22111255D01*
G01X70202370Y-22077896D01*
G01X70126126Y-22044525D01*
G01X70051118Y-22011152D01*
G01X69977376Y-21977783D01*
G01X69904927Y-21944425D01*
G01X69833799Y-21911088D01*
G01X69764020Y-21877778D01*
G01X69695618Y-21844502D01*
G01X69628620Y-21811269D01*
G01X69563055Y-21778087D01*
G01X69563055Y-21778087D01*
G01X69563055Y-21778087D01*
G01X69538361Y-21765883D01*
G01X69509132Y-21752493D01*
G01X69475531Y-21738431D01*
G01X69437726Y-21724212D01*
G01X69395881Y-21710350D01*
G01X69350162Y-21697359D01*
G01X69300736Y-21685753D01*
G01X69247766Y-21676048D01*
G01X69191420Y-21668758D01*
G01X69131862Y-21664397D01*
G01X69069259Y-21663479D01*
G01X69003775Y-21666519D01*
G01X68935577Y-21674031D01*
G01X68864830Y-21686531D01*
G01X68844171Y-21691090D01*
G01X68844171Y-21691090D01*
G01X68772786Y-21703671D01*
G01X68701282Y-21716235D01*
G01X68629650Y-21728771D01*
G01X68557881Y-21741268D01*
G01X68485968Y-21753717D01*
G01X68413903Y-21766107D01*
G01X68341675Y-21778427D01*
G01X68269278Y-21790667D01*
G01X68196702Y-21802818D01*
G01X68123940Y-21814868D01*
G01X68050982Y-21826807D01*
G01X67977821Y-21838625D01*
G01X67904447Y-21850311D01*
G01X67830853Y-21861856D01*
G01X67757030Y-21873249D01*
G01X67682970Y-21884479D01*
G01X67608663Y-21895536D01*
G01X67534102Y-21906411D01*
G01X67459279Y-21917091D01*
G01X67384184Y-21927568D01*
G01X67308809Y-21937831D01*
G01X67233147Y-21947869D01*
G01X67157187Y-21957673D01*
G01X67080923Y-21967231D01*
G01X67004345Y-21976534D01*
G01X66927446Y-21985570D01*
G01X66850216Y-21994331D01*
G01X66772647Y-22002805D01*
G01X66694731Y-22010982D01*
G01X66616459Y-22018852D01*
G01X66537823Y-22026405D01*
G01X66458815Y-22033629D01*
G01X66379425Y-22040516D01*
G01X66299646Y-22047053D01*
G01X66219470Y-22053232D01*
G01X66138886Y-22059041D01*
G01X66057888Y-22064471D01*
G01X65976467Y-22069511D01*
G01X65894614Y-22074151D01*
G01X65812321Y-22078380D01*
G01X65729580Y-22082188D01*
G01X65646381Y-22085565D01*
G01X65562717Y-22088500D01*
G01X65478579Y-22090983D01*
G01X65393959Y-22093004D01*
G01X65308848Y-22094552D01*
G01X65223238Y-22095618D01*
G01X65137120Y-22096190D01*
G01X65050486Y-22096258D01*
G01X64963327Y-22095812D01*
G01X64963327Y-22095812D01*
G01X24515926Y-22095812D01*
G01X24515926Y-22095812D01*
G01X24470421Y-22098452D01*
G01X24426182Y-22103810D01*
G01X24383144Y-22111794D01*
G01X24341244Y-22122312D01*
G01X24300417Y-22135271D01*
G01X24260599Y-22150578D01*
G01X24221726Y-22168142D01*
G01X24183734Y-22187869D01*
G01X24146559Y-22209668D01*
G01X24110136Y-22233446D01*
G01X24074402Y-22259110D01*
G01X24039292Y-22286569D01*
G01X24004743Y-22315729D01*
G01X23970690Y-22346498D01*
G01X23937068Y-22378784D01*
G01X23903815Y-22412495D01*
G01X23870865Y-22447537D01*
G01X23838155Y-22483819D01*
G01X23805621Y-22521248D01*
G01X23773198Y-22559731D01*
G01X23740822Y-22599177D01*
G01X23708429Y-22639493D01*
G01X23675955Y-22680585D01*
G01X23643336Y-22722363D01*
G01X23610508Y-22764733D01*
G01X23577407Y-22807603D01*
G01X23543968Y-22850881D01*
G01X23510127Y-22894474D01*
G01X23475820Y-22938290D01*
G01X23440984Y-22982236D01*
G01X23405554Y-23026220D01*
G01X23369465Y-23070149D01*
G01X23332655Y-23113931D01*
G01X23295058Y-23157474D01*
G01X23256610Y-23200685D01*
G01X23217248Y-23243472D01*
G01X23176907Y-23285742D01*
G01X23135523Y-23327403D01*
G01X23093032Y-23368362D01*
G01X23049370Y-23408528D01*
G01X23004472Y-23447807D01*
G01X22958275Y-23486106D01*
G01X22910715Y-23523335D01*
G01X22861727Y-23559400D01*
G01X22811247Y-23594209D01*
G01X22759212Y-23627669D01*
G01X22705556Y-23659688D01*
G01X22650216Y-23690174D01*
G01X22593128Y-23719034D01*
G01X22534227Y-23746175D01*
G01X22534227Y-23746175D01*
G01X22534227Y-23746175D01*
G01X22473884Y-23771445D01*
G01X22411507Y-23795030D01*
G01X22347224Y-23816945D01*
G01X22281160Y-23837208D01*
G01X22213442Y-23855835D01*
G01X22144196Y-23872842D01*
G01X22073548Y-23888247D01*
G01X22001624Y-23902064D01*
G01X21928552Y-23914312D01*
G01X21854455Y-23925007D01*
G01X21779462Y-23934164D01*
G01X21703699Y-23941801D01*
G01X21627291Y-23947934D01*
G01X21550364Y-23952580D01*
G01X21473046Y-23955754D01*
G01X21395462Y-23957475D01*
G01X21317738Y-23957757D01*
G01X21240001Y-23956618D01*
G01X21162377Y-23954074D01*
G01X21084992Y-23950142D01*
G01X21007973Y-23944838D01*
G01X20931445Y-23938179D01*
G01X20855534Y-23930181D01*
G01X20780368Y-23920860D01*
G01X20706072Y-23910234D01*
G01X20632773Y-23898319D01*
G01X20560597Y-23885131D01*
G01X20489669Y-23870686D01*
G01X20420117Y-23855002D01*
G01X20352066Y-23838095D01*
G01X20285642Y-23819981D01*
G01X20220973Y-23800677D01*
G01X20158183Y-23780199D01*
G01X20137693Y-23773115D01*
G01X20137693Y-23773115D01*
G01X20077213Y-23748926D01*
G01X20018979Y-23721456D01*
G01X19962803Y-23690952D01*
G01X19908494Y-23657667D01*
G01X19855863Y-23621849D01*
G01X19804720Y-23583749D01*
G01X19754876Y-23543618D01*
G01X19706142Y-23501705D01*
G01X19658327Y-23458260D01*
G01X19611243Y-23413534D01*
G01X19564699Y-23367776D01*
G01X19518507Y-23321237D01*
G01X19472476Y-23274167D01*
G01X19426417Y-23226816D01*
G01X19380141Y-23179434D01*
G01X19333457Y-23132272D01*
G01X19286178Y-23085579D01*
G01X19238111Y-23039605D01*
G01X19189070Y-22994601D01*
G01X19138862Y-22950817D01*
G01X19087301Y-22908503D01*
G01X19034194Y-22867908D01*
G01X18979354Y-22829284D01*
G01X18922591Y-22792881D01*
G01X18863714Y-22758947D01*
G01X18802535Y-22727734D01*
G01X18738864Y-22699492D01*
G01X18672511Y-22674471D01*
G01X18603287Y-22652920D01*
G01X18531002Y-22635091D01*
G01X18455467Y-22621232D01*
G01X18376492Y-22611595D01*
G01X18293887Y-22606430D01*
G01X18265513Y-22605745D01*
G01X18265513Y-22605745D01*
G01X18142645Y-22606311D01*
G01X18024872Y-22607335D01*
G01X17912036Y-22608815D01*
G01X17803983Y-22610748D01*
G01X17700557Y-22613130D01*
G01X17601603Y-22615958D01*
G01X17506965Y-22619231D01*
G01X17416488Y-22622945D01*
G01X17330017Y-22627097D01*
G01X17247394Y-22631685D01*
G01X17168466Y-22636705D01*
G01X17093077Y-22642155D01*
G01X17021071Y-22648031D01*
G01X16952292Y-22654332D01*
G01X16886586Y-22661053D01*
G01X16823796Y-22668193D01*
G01X16763767Y-22675748D01*
G01X16706344Y-22683715D01*
G01X16651370Y-22692092D01*
G01X16598692Y-22700876D01*
G01X16548152Y-22710064D01*
G01X16499596Y-22719652D01*
G01X16452868Y-22729639D01*
G01X16407812Y-22740021D01*
G01X16364274Y-22750796D01*
G01X16322096Y-22761960D01*
G01X16281125Y-22773511D01*
G01X16241204Y-22785445D01*
G01X16202178Y-22797761D01*
G01X16163892Y-22810455D01*
G01X16126189Y-22823523D01*
G01X16088915Y-22836965D01*
G01X16051914Y-22850776D01*
G01X16015030Y-22864953D01*
G01X15978108Y-22879494D01*
G01X15940992Y-22894396D01*
G01X15903527Y-22909657D01*
G01X15865557Y-22925272D01*
G01X15826927Y-22941240D01*
G01X15787482Y-22957557D01*
G01X15747065Y-22974221D01*
G01X15705521Y-22991228D01*
G01X15662695Y-23008577D01*
G01X15618432Y-23026263D01*
G01X15572575Y-23044285D01*
G01X15524969Y-23062639D01*
G01X15475459Y-23081322D01*
G01X15423889Y-23100332D01*
G01X15370103Y-23119666D01*
G01X15313947Y-23139320D01*
G01X15313947Y-23139320D01*
G01X15313947Y-23139320D01*
G01X15246732Y-23160559D01*
G01X15178333Y-23181433D01*
G01X15108784Y-23201911D01*
G01X15038115Y-23221961D01*
G01X14966358Y-23241552D01*
G01X14893543Y-23260652D01*
G01X14819702Y-23279230D01*
G01X14744867Y-23297254D01*
G01X14669069Y-23314693D01*
G01X14592339Y-23331516D01*
G01X14514709Y-23347690D01*
G01X14436210Y-23363185D01*
G01X14356872Y-23377969D01*
G01X14276728Y-23392010D01*
G01X14195809Y-23405278D01*
G01X14114147Y-23417740D01*
G01X14031771Y-23429365D01*
G01X13948715Y-23440122D01*
G01X13865009Y-23449979D01*
G01X13780684Y-23458905D01*
G01X13695772Y-23466868D01*
G01X13610304Y-23473838D01*
G01X13524312Y-23479781D01*
G01X13437827Y-23484668D01*
G01X13350880Y-23488466D01*
G01X13263502Y-23491144D01*
G01X13175725Y-23492670D01*
G01X13087581Y-23493014D01*
G01X12999100Y-23492143D01*
G01X12910314Y-23490027D01*
G01X12821254Y-23486633D01*
G01X12731951Y-23481930D01*
G01X12642437Y-23475887D01*
G01X12552744Y-23468473D01*
G01X12462902Y-23459655D01*
G01X12372942Y-23449403D01*
G01X12282897Y-23437685D01*
G01X12192798Y-23424469D01*
G01X12102675Y-23409724D01*
G01X12012561Y-23393419D01*
G01X11922486Y-23375522D01*
G01X11832482Y-23356001D01*
G01X11742580Y-23334826D01*
G01X11652811Y-23311964D01*
G01X11563207Y-23287385D01*
G01X11473800Y-23261056D01*
G01X11384620Y-23232947D01*
G01X11295699Y-23203025D01*
G01X11207068Y-23171260D01*
G01X11118758Y-23137620D01*
G01X11118758Y-23137620D01*
G01X11118758Y-23137620D01*
G01X11013141Y-23094970D01*
G01X10910039Y-23050985D01*
G01X10809373Y-23005760D01*
G01X10711066Y-22959394D01*
G01X10615037Y-22911981D01*
G01X10521209Y-22863619D01*
G01X10429501Y-22814404D01*
G01X10339836Y-22764432D01*
G01X10252134Y-22713800D01*
G01X10166316Y-22662604D01*
G01X10082304Y-22610941D01*
G01X10000018Y-22558907D01*
G01X9919380Y-22506598D01*
G01X9840310Y-22454112D01*
G01X9762731Y-22401543D01*
G01X9686562Y-22348990D01*
G01X9611725Y-22296548D01*
G01X9538141Y-22244314D01*
G01X9465731Y-22192384D01*
G01X9394417Y-22140854D01*
G01X9324119Y-22089822D01*
G01X9254758Y-22039383D01*
G01X9186256Y-21989634D01*
G01X9118533Y-21940672D01*
G01X9051511Y-21892592D01*
G01X8985111Y-21845491D01*
G01X8919254Y-21799467D01*
G01X8853861Y-21754614D01*
G01X8788852Y-21711030D01*
G01X8724150Y-21668811D01*
G01X8659675Y-21628054D01*
G01X8595349Y-21588854D01*
G01X8531091Y-21551309D01*
G01X8466825Y-21515514D01*
G01X8402469Y-21481567D01*
G01X8337947Y-21449563D01*
G01X8273178Y-21419600D01*
G01X8208084Y-21391773D01*
G01X8142586Y-21366179D01*
G01X8076605Y-21342915D01*
G01X8010062Y-21322076D01*
G01X7942879Y-21303760D01*
G01X7874975Y-21288062D01*
G01X7806273Y-21275080D01*
G01X7736694Y-21264909D01*
G01X7666158Y-21257647D01*
G01X7594586Y-21253389D01*
G01X7521901Y-21252231D01*
G01X7448022Y-21254272D01*
G01X7372871Y-21259606D01*
G01X7372871Y-21259606D01*
G01X7372871Y-21259606D01*
G01X7308183Y-21266065D01*
G01X7245437Y-21273255D01*
G01X7184523Y-21281120D01*
G01X7125330Y-21289607D01*
G01X7067749Y-21298663D01*
G01X7011667Y-21308235D01*
G01X6956977Y-21318268D01*
G01X6903566Y-21328710D01*
G01X6851325Y-21339506D01*
G01X6800143Y-21350604D01*
G01X6749909Y-21361950D01*
G01X6700515Y-21373490D01*
G01X6651849Y-21385171D01*
G01X6603800Y-21396939D01*
G01X6556259Y-21408740D01*
G01X6509116Y-21420522D01*
G01X6462259Y-21432231D01*
G01X6415578Y-21443813D01*
G01X6368964Y-21455215D01*
G01X6322305Y-21466383D01*
G01X6275492Y-21477264D01*
G01X6228414Y-21487804D01*
G01X6180960Y-21497949D01*
G01X6133021Y-21507647D01*
G01X6084486Y-21516843D01*
G01X6035244Y-21525485D01*
G01X5985186Y-21533518D01*
G01X5934201Y-21540890D01*
G01X5882178Y-21547546D01*
G01X5829008Y-21553433D01*
G01X5774579Y-21558498D01*
G01X5718782Y-21562687D01*
G01X5661507Y-21565946D01*
G01X5602642Y-21568223D01*
G01X5542077Y-21569463D01*
G01X5479703Y-21569614D01*
G01X5415408Y-21568620D01*
G01X5349083Y-21566430D01*
G01X5280617Y-21562990D01*
G01X5209900Y-21558246D01*
G01X5136821Y-21552144D01*
G01X5061270Y-21544631D01*
G01X4983137Y-21535653D01*
G01X4902311Y-21525158D01*
G01X4818682Y-21513091D01*
G01X4732140Y-21499399D01*
G01X4642574Y-21484029D01*
G01X4549874Y-21466927D01*
G01X4453929Y-21448039D01*
G01X4354630Y-21427312D01*
G01X4354630Y-21427312D01*
G01X4354630Y-21427312D01*
G01X4287201Y-21414600D01*
G01X4216367Y-21399370D01*
G01X4142336Y-21381674D01*
G01X4065316Y-21361564D01*
G01X3985515Y-21339090D01*
G01X3903140Y-21314304D01*
G01X3818399Y-21287256D01*
G01X3731500Y-21257999D01*
G01X3642650Y-21226584D01*
G01X3552057Y-21193061D01*
G01X3459930Y-21157483D01*
G01X3366475Y-21119899D01*
G01X3271900Y-21080362D01*
G01X3176414Y-21038923D01*
G01X3080223Y-20995633D01*
G01X2983536Y-20950543D01*
G01X2886561Y-20903705D01*
G01X2789504Y-20855169D01*
G01X2692575Y-20804988D01*
G01X2595979Y-20753211D01*
G01X2499926Y-20699891D01*
G01X2404623Y-20645079D01*
G01X2310278Y-20588826D01*
G01X2217098Y-20531183D01*
G01X2125291Y-20472202D01*
G01X2035065Y-20411934D01*
G01X1946628Y-20350429D01*
G01X1860187Y-20287740D01*
G01X1775950Y-20223917D01*
G01X1694125Y-20159012D01*
G01X1614920Y-20093076D01*
G01X1538541Y-20026161D01*
G01X1465198Y-19958316D01*
G01X1395098Y-19889595D01*
G01X1328448Y-19820048D01*
G01X1265456Y-19749726D01*
G01X1206330Y-19678680D01*
G01X1151278Y-19606962D01*
G01X1100507Y-19534624D01*
G01X1054225Y-19461715D01*
G01X1012640Y-19388288D01*
G01X0975959Y-19314394D01*
G01X0944391Y-19240084D01*
G01X0918143Y-19165409D01*
G01X0897423Y-19090421D01*
G01X0882438Y-19015170D01*
G01X0873396Y-18939708D01*
G01X0870505Y-18864087D01*
G01X0873973Y-18788358D01*
G01X0884007Y-18712571D01*
G01X0884007Y-18712571D01*
G01X0884007Y-18712571D01*
G01X0897251Y-18637495D01*
G01X0910181Y-18563805D01*
G01X0922759Y-18491407D01*
G01X0934947Y-18420209D01*
G01X0946704Y-18350117D01*
G01X0957993Y-18281040D01*
G01X0968773Y-18212885D01*
G01X0979006Y-18145559D01*
G01X0988652Y-18078969D01*
G01X0997674Y-18013022D01*
G01X1006031Y-17947628D01*
G01X1013684Y-17882691D01*
G01X1020595Y-17818120D01*
G01X1026725Y-17753823D01*
G01X1032034Y-17689706D01*
G01X1036484Y-17625678D01*
G01X1040035Y-17561644D01*
G01X1042648Y-17497513D01*
G01X1044284Y-17433193D01*
G01X1044905Y-17368589D01*
G01X1044470Y-17303611D01*
G01X1042942Y-17238165D01*
G01X1040281Y-17172158D01*
G01X1036447Y-17105498D01*
G01X1031403Y-17038092D01*
G01X1025109Y-16969848D01*
G01X1017525Y-16900673D01*
G01X1008613Y-16830474D01*
G01X0998334Y-16759159D01*
G01X0986649Y-16686635D01*
G01X0973518Y-16612809D01*
G01X0958903Y-16537589D01*
G01X0942764Y-16460883D01*
G01X0925063Y-16382596D01*
G01X0905760Y-16302638D01*
G01X0884816Y-16220915D01*
G01X0862193Y-16137334D01*
G01X0837851Y-16051804D01*
G01X0811751Y-15964231D01*
G01X0783855Y-15874522D01*
G01X0754122Y-15782586D01*
G01X0722515Y-15688329D01*
G01X0688994Y-15591658D01*
G01X0653519Y-15492482D01*
G01X0616053Y-15390708D01*
G01X0576555Y-15286242D01*
G01X0534987Y-15178992D01*
G01X0491310Y-15068866D01*
G01X0445485Y-14955771D01*
G01X0397472Y-14839615D01*
G01X0397472Y-14839615D01*
G01X0397472Y-14839615D01*
G01X0379064Y-14813096D01*
G01X0360996Y-14785234D01*
G01X0343232Y-14755831D01*
G01X0325737Y-14724687D01*
G01X0308474Y-14691607D01*
G01X0291410Y-14656391D01*
G01X0274508Y-14618843D01*
G01X0257733Y-14578763D01*
G01X0241050Y-14535955D01*
G01X0224422Y-14490221D01*
G01X0207816Y-14441363D01*
G01X0191195Y-14389182D01*
G01X0174524Y-14333481D01*
G01X0157767Y-14274063D01*
G01X0140890Y-14210730D01*
G01X0123856Y-14143282D01*
G01X0112396Y-14095935D01*
G01X0112396Y-14095935D01*
G01X0107498Y-14031726D01*
G01X0102787Y-13968230D01*
G01X0098315Y-13905419D01*
G01X0094137Y-13843259D01*
G01X0090306Y-13781722D01*
G01X0086876Y-13720777D01*
G01X0083900Y-13660393D01*
G01X0081431Y-13600539D01*
G01X0079524Y-13541184D01*
G01X0078232Y-13482300D01*
G01X0077607Y-13423854D01*
G01X0077705Y-13365816D01*
G01X0078578Y-13308155D01*
G01X0080279Y-13250842D01*
G01X0082864Y-13193845D01*
G01X0086384Y-13137134D01*
G01X0090893Y-13080678D01*
G01X0096445Y-13024447D01*
G01X0103094Y-12968410D01*
G01X0110894Y-12912536D01*
G01X0119896Y-12856796D01*
G01X0130156Y-12801157D01*
G01X0141726Y-12745591D01*
G01X0154661Y-12690066D01*
G01X0169013Y-12634552D01*
G01X0184837Y-12579017D01*
G01X0202185Y-12523432D01*
G01X0221112Y-12467767D01*
G01X0241670Y-12411989D01*
G01X0263914Y-12356070D01*
G01X0287896Y-12299977D01*
G01X0313672Y-12243681D01*
G01X0341293Y-12187152D01*
G01X0350919Y-12168251D01*
G01X0350919Y-12168251D01*
G01X0391706Y-12102975D01*
G01X0430804Y-12038954D01*
G01X0468223Y-11976141D01*
G01X0503970Y-11914492D01*
G01X0538053Y-11853962D01*
G01X0570480Y-11794504D01*
G01X0601260Y-11736073D01*
G01X0630400Y-11678624D01*
G01X0657908Y-11622111D01*
G01X0683793Y-11566488D01*
G01X0708062Y-11511711D01*
G01X0730723Y-11457734D01*
G01X0751785Y-11404511D01*
G01X0771255Y-11351997D01*
G01X0789141Y-11300146D01*
G01X0805451Y-11248913D01*
G01X0820194Y-11198252D01*
G01X0833378Y-11148118D01*
G01X0845010Y-11098465D01*
G01X0855098Y-11049248D01*
G01X0863650Y-11000422D01*
G01X0870675Y-10951941D01*
G01X0876181Y-10903759D01*
G01X0880175Y-10855831D01*
G01X0882665Y-10808111D01*
G01X0883660Y-10760554D01*
G01X0883168Y-10713115D01*
G01X0881196Y-10665748D01*
G01X0877752Y-10618408D01*
G01X0872845Y-10571048D01*
G01X0866482Y-10523624D01*
G01X0858672Y-10476090D01*
G01X0849423Y-10428401D01*
G01X0838742Y-10380511D01*
G01X0826638Y-10332374D01*
G01X0813118Y-10283946D01*
G01X0798191Y-10235180D01*
G01X0781865Y-10186032D01*
G01X0764147Y-10136455D01*
G01X0745046Y-10086405D01*
G01X0724569Y-10035835D01*
G01X0702725Y-9984700D01*
G01X0679522Y-9932955D01*
G01X0654967Y-9880555D01*
G01X0629070Y-9827453D01*
G01X0601837Y-9773605D01*
G01X0573276Y-9718964D01*
G01X0543396Y-9663486D01*
G01X0512205Y-9607124D01*
G01X0479711Y-9549834D01*
G01X0479711Y-9549834D01*
G01X0479711Y-9549834D01*
G01X0447324Y-9491857D01*
G01X0416426Y-9433495D01*
G01X0386982Y-9374801D01*
G01X0358958Y-9315823D01*
G01X0332319Y-9256612D01*
G01X0307029Y-9197218D01*
G01X0283056Y-9137691D01*
G01X0260362Y-9078081D01*
G01X0238915Y-9018438D01*
G01X0218679Y-8958813D01*
G01X0199619Y-8899254D01*
G01X0181701Y-8839814D01*
G01X0164890Y-8780540D01*
G01X0149152Y-8721485D01*
G01X0134450Y-8662697D01*
G01X0120752Y-8604227D01*
G01X0108022Y-8546125D01*
G01X0096225Y-8488440D01*
G01X0085326Y-8431224D01*
G01X0075292Y-8374526D01*
G01X0066087Y-8318396D01*
G01X0057676Y-8262885D01*
G01X0050024Y-8208041D01*
G01X0043098Y-8153916D01*
G01X0036862Y-8100560D01*
G01X0031281Y-8048023D01*
G01X0026321Y-7996354D01*
G01X0021948Y-7945604D01*
G01X0018125Y-7895823D01*
G01X0014819Y-7847060D01*
G01X0011995Y-7799367D01*
G01X0009618Y-7752793D01*
G01X0007653Y-7707388D01*
G01X0006066Y-7663203D01*
G01X0004822Y-7620287D01*
G01X0003886Y-7578690D01*
G01X0003223Y-7538463D01*
G01X0002799Y-7499656D01*
G01X0002579Y-7462319D01*
G01X0002529Y-7426501D01*
G01X0002613Y-7392253D01*
G01X0002796Y-7359625D01*
G01X0003045Y-7328667D01*
G01X0003324Y-7299430D01*
G01X0003599Y-7271962D01*
G01X0003834Y-7246316D01*
G01X0003996Y-7222539D01*
G01X0004049Y-7200683D01*
G01X0003959Y-7180797D01*
G01X0003690Y-7162933D01*
G01X0003690Y-7162933D01*
G01X0003690Y-7162933D01*
G01X0003077Y-7135227D01*
G01X0002381Y-7102750D01*
G01X0001669Y-7065697D01*
G01X0001007Y-7024258D01*
G01X0000464Y-6978627D01*
G01X0000106Y-6928997D01*
G01X0000000Y-6875561D01*
G01X0000214Y-6818511D01*
G01X0000814Y-6758040D01*
G01X0001868Y-6694341D01*
G01X0003442Y-6627606D01*
G01X0005605Y-6558029D01*
G01X0008422Y-6485802D01*
G01X0011961Y-6411117D01*
G01X0016290Y-6334169D01*
G01X0021474Y-6255149D01*
G01X0027582Y-6174250D01*
G01X0034681Y-6091664D01*
G01X0042837Y-6007586D01*
G01X0052118Y-5922207D01*
G01X0062590Y-5835720D01*
G01X0074322Y-5748319D01*
G01X0087379Y-5660195D01*
G01X0101830Y-5571541D01*
G01X0117741Y-5482551D01*
G01X0135179Y-5393417D01*
G01X0154211Y-5304332D01*
G01X0174905Y-5215489D01*
G01X0197328Y-5127080D01*
G01X0221546Y-5039297D01*
G01X0247628Y-4952335D01*
G01X0275639Y-4866386D01*
G01X0305647Y-4781642D01*
G01X0316105Y-4753695D01*
G01X0316105Y-4753695D01*
G01X0338655Y-4697393D01*
G01X0363990Y-4640024D01*
G01X0392085Y-4581689D01*
G01X0422912Y-4522491D01*
G01X0456445Y-4462534D01*
G01X0492656Y-4401919D01*
G01X0531519Y-4340749D01*
G01X0573007Y-4279126D01*
G01X0617094Y-4217154D01*
G01X0663752Y-4154934D01*
G01X0712955Y-4092570D01*
G01X0764675Y-4030164D01*
G01X0818887Y-3967819D01*
G01X0875562Y-3905636D01*
G01X0934675Y-3843720D01*
G01X0996199Y-3782171D01*
G01X1060106Y-3721094D01*
G01X1126370Y-3660590D01*
G01X1194964Y-3600762D01*
G01X1265862Y-3541713D01*
G01X1339035Y-3483545D01*
G01X1414459Y-3426360D01*
G01X1492105Y-3370263D01*
G01X1571947Y-3315354D01*
G01X1653959Y-3261736D01*
G01X1738112Y-3209513D01*
G01X1824381Y-3158787D01*
G01X1912739Y-3109659D01*
G01X2003159Y-3062234D01*
G01X2095614Y-3016613D01*
G01X2190077Y-2972899D01*
G01X2286521Y-2931195D01*
G01X2384920Y-2891603D01*
G01X2485247Y-2854226D01*
G01X2587475Y-2819167D01*
G01X2691576Y-2786527D01*
G01X2797525Y-2756410D01*
G01X2905295Y-2728918D01*
G01X3014858Y-2704153D01*
G01X3126188Y-2682219D01*
G01X3239258Y-2663218D01*
G01X3354042Y-2647252D01*
G01X3470511Y-2634425D01*
G01X3588641Y-2624838D01*
G01X3708403Y-2618594D01*
G01X3829771Y-2615796D01*
G01X3952718Y-2616547D01*
G01X4077217Y-2620948D01*
G01X4203242Y-2629103D01*
G01X4330765Y-2641114D01*
G01X4330765Y-2641114D01*
G01X4330765Y-2641114D01*
G01X4394320Y-2647520D01*
G01X4456739Y-2652777D01*
G01X4518049Y-2656905D01*
G01X4578278Y-2659922D01*
G01X4637451Y-2661848D01*
G01X4695596Y-2662701D01*
G01X4752740Y-2662502D01*
G01X4808910Y-2661268D01*
G01X4864133Y-2659019D01*
G01X4918436Y-2655775D01*
G01X4971846Y-2651553D01*
G01X5024389Y-2646374D01*
G01X5076093Y-2640257D01*
G01X5126985Y-2633220D01*
G01X5177092Y-2625283D01*
G01X5226441Y-2616465D01*
G01X5275058Y-2606784D01*
G01X5322970Y-2596261D01*
G01X5370206Y-2584914D01*
G01X5416791Y-2572762D01*
G01X5462752Y-2559824D01*
G01X5508117Y-2546120D01*
G01X5552913Y-2531668D01*
G01X5597166Y-2516488D01*
G01X5640903Y-2500599D01*
G01X5684152Y-2484020D01*
G01X5726939Y-2466770D01*
G01X5769292Y-2448867D01*
G01X5811237Y-2430332D01*
G01X5852801Y-2411184D01*
G01X5894012Y-2391441D01*
G01X5934895Y-2371122D01*
G01X5975479Y-2350247D01*
G01X6015791Y-2328835D01*
G01X6055856Y-2306905D01*
G01X6095702Y-2284475D01*
G01X6135357Y-2261566D01*
G01X6174846Y-2238196D01*
G01X6214198Y-2214384D01*
G01X6253439Y-2190150D01*
G01X6292595Y-2165512D01*
G01X6331695Y-2140490D01*
G01X6370764Y-2115102D01*
G01X6409831Y-2089369D01*
G01X6448921Y-2063308D01*
G01X6488062Y-2036940D01*
G01X6527281Y-2010282D01*
G01X6566605Y-1983355D01*
G01X6606061Y-1956178D01*
G01X6645675Y-1928768D01*
G01X6685475Y-1901147D01*
G01X6725487Y-1873332D01*
G01X6765740Y-1845343D01*
G01X6806259Y-1817199D01*
G01X6847071Y-1788919D01*
G01X6888204Y-1760522D01*
G01X6929685Y-1732027D01*
G01X6971540Y-1703454D01*
G01X7013796Y-1674821D01*
G01X7056481Y-1646148D01*
G01X7099622Y-1617453D01*
G01X7143245Y-1588757D01*
G01X7187377Y-1560077D01*
G01X7232045Y-1531433D01*
G01X7277277Y-1502844D01*
G01X7323099Y-1474330D01*
G01X7369538Y-1445909D01*
G01X7416622Y-1417600D01*
G01X7464377Y-1389423D01*
G01X7512830Y-1361397D01*
G01X7562008Y-1333541D01*
G01X7611938Y-1305873D01*
G01X7662647Y-1278413D01*
G01X7714162Y-1251181D01*
G01X7766511Y-1224194D01*
G01X7819719Y-1197473D01*
G01X7873814Y-1171037D01*
G01X7928823Y-1144904D01*
G01X7984773Y-1119093D01*
G01X8041691Y-1093625D01*
G01X8099604Y-1068517D01*
G01X8158539Y-1043789D01*
G01X8218522Y-1019461D01*
G01X8279581Y-0995550D01*
G01X8341743Y-0972077D01*
G01X8405035Y-0949060D01*
G01X8469483Y-0926519D01*
G01X8535115Y-0904472D01*
G01X8601958Y-0882940D01*
G01X8670038Y-0861940D01*
G01X8739383Y-0841491D01*
G01X8810019Y-0821614D01*
G01X8881974Y-0802328D01*
G01X8955274Y-0783650D01*
G01X9029947Y-0765601D01*
G01X9106019Y-0748199D01*
G01X9183518Y-0731464D01*
G01X9262469Y-0715415D01*
G01X9342902Y-0700070D01*
G01X9424841Y-0685450D01*
G01X9424841Y-0685450D01*
G01X9424841Y-0685450D01*
G01X9514529Y-0663864D01*
G01X9603437Y-0643651D01*
G01X9691584Y-0624786D01*
G01X9778990Y-0607247D01*
G01X9865672Y-0591010D01*
G01X9951652Y-0576052D01*
G01X10036947Y-0562349D01*
G01X10121577Y-0549878D01*
G01X10205561Y-0538615D01*
G01X10288918Y-0528537D01*
G01X10371667Y-0519622D01*
G01X10453827Y-0511844D01*
G01X10535417Y-0505181D01*
G01X10616458Y-0499610D01*
G01X10696966Y-0495107D01*
G01X10776963Y-0491649D01*
G01X10856466Y-0489211D01*
G01X10935495Y-0487772D01*
G01X11014070Y-0487307D01*
G01X11092208Y-0487793D01*
G01X11169930Y-0489207D01*
G01X11247255Y-0491525D01*
G01X11324201Y-0494724D01*
G01X11400787Y-0498780D01*
G01X11477034Y-0503671D01*
G01X11552959Y-0509372D01*
G01X11628582Y-0515860D01*
G01X11703923Y-0523112D01*
G01X11778999Y-0531104D01*
G01X11853832Y-0539814D01*
G01X11928438Y-0549217D01*
G01X12002839Y-0559290D01*
G01X12077052Y-0570010D01*
G01X12151096Y-0581353D01*
G01X12224992Y-0593297D01*
G01X12298758Y-0605817D01*
G01X12372413Y-0618890D01*
G01X12445977Y-0632493D01*
G01X12519468Y-0646602D01*
G01X12592905Y-0661195D01*
G01X12666308Y-0676247D01*
G01X12739696Y-0691735D01*
G01X12813088Y-0707635D01*
G01X12886503Y-0723926D01*
G01X12959960Y-0740582D01*
G01X13033479Y-0757580D01*
G01X13107078Y-0774898D01*
G01X13180776Y-0792512D01*
G01X13254593Y-0810398D01*
G01X13328547Y-0828532D01*
G01X13402659Y-0846893D01*
G01X13476946Y-0865455D01*
G01X13551429Y-0884196D01*
G01X13626126Y-0903093D01*
G01X13701056Y-0922121D01*
G01X13776239Y-0941258D01*
G01X13851693Y-0960480D01*
G01X13927438Y-0979764D01*
G01X14003492Y-0999086D01*
G01X14079876Y-1018423D01*
G01X14156608Y-1037751D01*
G01X14233706Y-1057048D01*
G01X14311191Y-1076289D01*
G01X14389082Y-1095451D01*
G01X14467397Y-1114512D01*
G01X14546156Y-1133447D01*
G01X14625377Y-1152232D01*
G01X14705080Y-1170846D01*
G01X14785284Y-1189264D01*
G01X14866009Y-1207462D01*
G01X14947272Y-1225418D01*
G01X15029094Y-1243109D01*
G01X15111494Y-1260509D01*
G01X15194490Y-1277597D01*
G01X15278101Y-1294349D01*
G01X15362348Y-1310741D01*
G01X15447248Y-1326751D01*
G01X15532822Y-1342354D01*
G01X15619087Y-1357527D01*
G01X15706064Y-1372247D01*
G01X15793772Y-1386490D01*
G01X15882228Y-1400233D01*
G01X15971454Y-1413453D01*
G01X16061467Y-1426127D01*
G01X16152287Y-1438230D01*
G01X16243933Y-1449739D01*
G01X16336425Y-1460631D01*
G01X16429780Y-1470883D01*
G01X16524019Y-1480471D01*
G01X16619160Y-1489372D01*
G01X16715223Y-1497562D01*
G01X16812226Y-1505019D01*
G01X16910190Y-1511718D01*
G01X17009132Y-1517635D01*
G01X17109072Y-1522749D01*
G01X17210030Y-1527035D01*
G01X17312024Y-1530470D01*
G01X17415073Y-1533031D01*
G01X17519197Y-1534693D01*
G01X17624414Y-1535435D01*
G01X17624414Y-1535435D01*
G01X17624414Y-1535435D01*
G01X17666127Y-1538359D01*
G01X17708181Y-1539351D01*
G01X17750571Y-1538472D01*
G01X17793287Y-1535784D01*
G01X17836322Y-1531349D01*
G01X17879669Y-1525229D01*
G01X17923320Y-1517485D01*
G01X17967266Y-1508181D01*
G01X18011501Y-1497377D01*
G01X18056017Y-1485136D01*
G01X18100805Y-1471519D01*
G01X18145859Y-1456588D01*
G01X18191170Y-1440406D01*
G01X18236731Y-1423034D01*
G01X18282535Y-1404534D01*
G01X18328572Y-1384969D01*
G01X18374836Y-1364399D01*
G01X18421319Y-1342887D01*
G01X18468014Y-1320495D01*
G01X18514912Y-1297284D01*
G01X18562006Y-1273317D01*
G01X18609287Y-1248656D01*
G01X18656750Y-1223362D01*
G01X18704385Y-1197498D01*
G01X18752185Y-1171124D01*
G01X18800142Y-1144304D01*
G01X18848249Y-1117099D01*
G01X18896498Y-1089571D01*
G01X18944880Y-1061782D01*
G01X18993390Y-1033793D01*
G01X19042018Y-1005667D01*
G01X19090757Y-0977466D01*
G01X19139599Y-0949252D01*
G01X19188537Y-0921086D01*
G01X19237563Y-0893030D01*
G01X19286669Y-0865147D01*
G01X19335848Y-0837497D01*
G01X19385091Y-0810144D01*
G01X19434391Y-0783149D01*
G01X19483741Y-0756574D01*
G01X19533132Y-0730481D01*
G01X19582558Y-0704931D01*
G01X19632009Y-0679987D01*
G01X19681479Y-0655711D01*
G01X19730960Y-0632164D01*
G01X19780444Y-0609408D01*
G01X19829923Y-0587506D01*
G01X19879390Y-0566519D01*
G01X19928837Y-0546510D01*
G01X19978256Y-0527539D01*
G01X19978256Y-0527539D01*
G01X19978256Y-0527539D01*
G01X20027815Y-0509245D01*
G01X20077680Y-0491243D01*
G01X20127845Y-0473558D01*
G01X20178301Y-0456218D01*
G01X20229042Y-0439248D01*
G01X20280060Y-0422676D01*
G01X20331348Y-0406527D01*
G01X20382898Y-0390829D01*
G01X20434703Y-0375608D01*
G01X20486756Y-0360891D01*
G01X20539048Y-0346703D01*
G01X20591573Y-0333072D01*
G01X20644323Y-0320023D01*
G01X20697291Y-0307584D01*
G01X20750470Y-0295782D01*
G01X20803851Y-0284641D01*
G01X20857428Y-0274190D01*
G01X20911193Y-0264455D01*
G01X20965139Y-0255461D01*
G01X21019258Y-0247236D01*
G01X21073544Y-0239807D01*
G01X21127987Y-0233199D01*
G01X21182582Y-0227439D01*
G01X21237320Y-0222554D01*
G01X21292195Y-0218570D01*
G01X21347199Y-0215513D01*
G01X21402324Y-0213412D01*
G01X21457563Y-0212290D01*
G01X21512909Y-0212177D01*
G01X21568354Y-0213096D01*
G01X21623891Y-0215077D01*
G01X21679512Y-0218144D01*
G01X21735210Y-0222325D01*
G01X21790978Y-0227645D01*
G01X21846808Y-0234132D01*
G01X21902693Y-0241812D01*
G01X21958625Y-0250711D01*
G01X22014597Y-0260856D01*
G01X22070602Y-0272274D01*
G01X22126632Y-0284991D01*
G01X22182679Y-0299033D01*
G01X22238737Y-0314427D01*
G01X22294798Y-0331200D01*
G01X22350854Y-0349378D01*
G01X22406898Y-0368988D01*
G01X22462923Y-0390056D01*
G01X22518921Y-0412608D01*
G01X22574885Y-0436672D01*
G01X22630808Y-0462273D01*
G01X22686681Y-0489439D01*
G01X22686681Y-0489439D01*
G01X22686681Y-0489439D01*
G01X22767411Y-0532530D01*
G01X22842302Y-0577795D01*
G01X22911716Y-0625026D01*
G01X22976013Y-0674013D01*
G01X23035556Y-0724549D01*
G01X23090704Y-0776424D01*
G01X23141820Y-0829430D01*
G01X23189265Y-0883359D01*
G01X23233400Y-0938002D01*
G01X23274585Y-0993149D01*
G01X23313184Y-1048594D01*
G01X23349556Y-1104126D01*
G01X23384063Y-1159538D01*
G01X23417067Y-1214621D01*
G01X23448927Y-1269167D01*
G01X23480007Y-1322966D01*
G01X23510667Y-1375810D01*
G01X23541268Y-1427491D01*
G01X23572171Y-1477799D01*
G01X23603739Y-1526527D01*
G01X23636331Y-1573466D01*
G01X23670310Y-1618407D01*
G01X23706036Y-1661142D01*
G01X23743871Y-1701461D01*
G01X23784176Y-1739157D01*
G01X23827312Y-1774021D01*
G01X23873641Y-1805844D01*
G01X23923524Y-1834418D01*
G01X23977322Y-1859534D01*
G01X24035396Y-1880984D01*
G01X24098108Y-1898558D01*
G01X24165819Y-1912048D01*
G01X24238890Y-1921247D01*
G01X24264500Y-1923323D01*
G01X64833126Y-1923323D01*
G01X64833126Y-1923323D01*
G01X64934249Y-1933660D01*
G01X65034542Y-1943759D01*
G01X65134016Y-1953633D01*
G01X65232679Y-1963296D01*
G01X65330541Y-1972763D01*
G01X65427612Y-1982046D01*
G01X65523900Y-1991160D01*
G01X65619415Y-2000119D01*
G01X65714166Y-2008936D01*
G01X65808162Y-2017624D01*
G01X65901414Y-2026199D01*
G01X65993930Y-2034673D01*
G01X66085719Y-2043061D01*
G01X66176792Y-2051376D01*
G01X66267156Y-2059632D01*
G01X66356822Y-2067842D01*
G01X66445799Y-2076021D01*
G01X66534097Y-2084183D01*
G01X66621724Y-2092340D01*
G01X66708690Y-2100508D01*
G01X66795004Y-2108699D01*
G01X66880676Y-2116928D01*
G01X66965714Y-2125208D01*
G01X67050129Y-2133553D01*
G01X67133930Y-2141977D01*
G01X67217125Y-2150494D01*
G01X67299725Y-2159117D01*
G01X67381739Y-2167861D01*
G01X67463175Y-2176738D01*
G01X67544044Y-2185764D01*
G01X67624354Y-2194951D01*
G01X67704116Y-2204313D01*
G01X67783337Y-2213865D01*
G01X67862028Y-2223619D01*
G01X67940199Y-2233591D01*
G01X68017857Y-2243793D01*
G01X68095013Y-2254239D01*
G01X68171677Y-2264944D01*
G01X68247856Y-2275920D01*
G01X68323561Y-2287182D01*
G01X68398802Y-2298744D01*
G01X68473586Y-2310619D01*
G01X68547924Y-2322821D01*
G01X68621825Y-2335364D01*
G01X68695299Y-2348262D01*
G01X68768354Y-2361528D01*
G01X68841000Y-2375177D01*
G01X68913247Y-2389222D01*
G01X68985103Y-2403676D01*
G01X69056578Y-2418554D01*
G01X69056578Y-2418554D01*
G01X69056578Y-2418554D01*
G01X69142469Y-2431787D01*
G01X69225721Y-2443350D01*
G01X69306399Y-2453267D01*
G01X69384568Y-2461563D01*
G01X69460289Y-2468260D01*
G01X69533629Y-2473384D01*
G01X69604650Y-2476957D01*
G01X69673417Y-2479004D01*
G01X69739994Y-2479548D01*
G01X69804444Y-2478614D01*
G01X69866831Y-2476226D01*
G01X69927220Y-2472407D01*
G01X69985675Y-2467181D01*
G01X70042258Y-2460572D01*
G01X70097035Y-2452604D01*
G01X70150070Y-2443302D01*
G01X70201425Y-2432688D01*
G01X70251166Y-2420787D01*
G01X70299356Y-2407622D01*
G01X70346058Y-2393218D01*
G01X70391338Y-2377599D01*
G01X70435259Y-2360788D01*
G01X70477885Y-2342809D01*
G01X70519280Y-2323686D01*
G01X70559507Y-2303444D01*
G01X70559507Y-2303444D01*
G04 end of program *
M02*
